<?xml version="1.0" standalone="no"?>
<!DOCTYPE svg PUBLIC "-//W3C//DTD SVG 20010904//EN"
 "http://www.w3.org/TR/2001/REC-SVG-20010904/DTD/svg10.dtd">
<svg version="1.0" xmlns="http://www.w3.org/2000/svg"
 width="512.000000pt" height="512.000000pt" viewBox="0 0 512.000000 512.000000"
 preserveAspectRatio="xMidYMid meet">
<metadata>
Created by potrace 1.14, written by Peter Selinger 2001-2017
</metadata>
<g transform="translate(0.000000,512.000000) scale(0.100000,-0.100000)"
fill="#000000" stroke="none">
<path d="M2907 4676 c-28 -26 -37 -66 -14 -66 6 1 23 7 37 15 14 8 37 14 53
15 35 0 39 35 5 43 -13 2 -30 7 -39 11 -9 4 -25 -3 -42 -18z"/>
<path d="M2035 4660 c-3 -5 3 -10 14 -10 12 0 21 5 21 10 0 6 -6 10 -14 10 -8
0 -18 -4 -21 -10z"/>
<path d="M2710 4630 c-34 -11 -204 -55 -265 -69 -27 -6 -97 -21 -155 -35 -58
-13 -121 -27 -140 -31 -19 -3 -90 -20 -157 -36 -66 -17 -150 -33 -185 -37 -34
-4 -62 -11 -60 -17 1 -5 5 -10 10 -10 32 2 145 17 177 25 22 5 92 21 155 35
63 15 142 33 175 40 33 8 92 21 130 30 39 9 93 21 120 27 66 14 217 66 229 78
12 12 1 12 -34 0z"/>
<path d="M3156 4631 c-10 -15 3 -34 39 -62 18 -14 52 -50 76 -80 46 -60 47
-61 214 -214 66 -60 164 -153 219 -206 95 -95 98 -99 92 -133 -9 -47 0 -79 27
-92 12 -6 40 -21 62 -32 48 -24 90 -66 81 -81 -8 -12 -58 -4 -96 14 -63 31
-67 30 -73 -24 -3 -28 -13 -60 -21 -73 -18 -27 -370 -368 -528 -511 -103 -94
-111 -99 -184 -118 -43 -11 -90 -27 -105 -35 -15 -7 -40 -14 -54 -14 -14 0
-56 -7 -93 -15 -77 -17 -2 -31 -703 129 -207 47 -384 86 -393 86 -12 0 -16
-11 -16 -49 0 -51 -8 -61 -54 -61 -13 0 -25 -3 -29 -6 -3 -4 -37 -8 -76 -9
-38 -2 -75 -6 -81 -10 -7 -4 -40 -51 -75 -104 -35 -53 -94 -139 -130 -191 -36
-52 -114 -170 -171 -262 -58 -93 -109 -168 -114 -168 -13 0 -50 -97 -44 -114
8 -21 33 -20 85 4 34 15 66 20 142 20 70 0 107 5 130 16 40 20 77 54 77 70 0
10 20 21 73 38 11 3 20 0 23 -9 8 -19 30 -19 38 0 3 8 12 15 21 15 17 0 20
-16 5 -25 -6 -4 -7 -11 -3 -18 7 -12 21 16 22 47 1 13 -4 17 -18 13 -22 -5
-54 42 -42 62 13 20 1 50 -22 57 -18 6 -18 7 -4 16 10 5 17 18 17 29 0 12 8
23 20 26 12 3 20 14 20 27 0 12 7 32 16 44 16 23 44 30 44 12 0 -6 8 -14 18
-17 9 -4 23 -14 30 -22 12 -14 13 -13 7 9 -3 14 -9 52 -11 85 -3 33 -14 95
-25 137 -14 56 -16 84 -9 103 19 50 35 29 46 -60 3 -27 8 -53 11 -58 3 -5 14
-41 25 -81 11 -39 24 -87 29 -106 6 -19 14 -51 19 -70 11 -44 45 -167 66 -240
9 -30 20 -68 24 -85 10 -36 25 -146 21 -159 -7 -26 69 -35 89 -11 7 8 21 15
31 15 20 0 43 35 33 51 -18 29 35 88 73 81 17 -4 50 44 58 84 6 32 3 41 -26
70 -39 40 -64 104 -46 116 7 4 29 8 49 8 27 0 40 6 48 19 15 29 13 71 -4 71
-19 0 -24 20 -30 118 -5 69 -3 84 10 89 9 3 20 0 24 -7 4 -7 13 -9 21 -5 22
14 73 14 101 -1 15 -8 38 -14 52 -14 14 0 28 -5 31 -11 4 -6 13 -8 21 -5 7 3
16 1 19 -4 9 -14 53 -12 58 3 3 9 7 9 19 -1 12 -9 15 -24 11 -52 -3 -22 -3
-40 1 -40 3 0 34 24 68 53 69 57 188 131 229 140 18 5 31 2 39 -8 10 -13 9
-15 -10 -15 -15 0 -58 -36 -134 -113 -153 -155 -390 -406 -394 -418 -3 -8 76
73 288 295 103 107 247 220 270 209 18 -8 45 -8 120 -2 l55 4 2 -70 c1 -72 8
-114 63 -365 63 -291 101 -493 98 -519 -2 -16 -12 -30 -26 -36 -19 -8 -22 -15
-18 -37 5 -27 -7 -38 -19 -18 -13 22 -26 9 -20 -19 5 -26 2 -32 -22 -44 -25
-13 -39 -13 -113 0 -47 8 -114 18 -150 22 -36 5 -121 18 -190 29 -69 12 -141
23 -160 26 -151 22 -240 45 -240 62 0 8 6 16 13 18 6 2 27 8 46 14 28 9 38 9
50 -2 9 -7 68 -21 131 -31 63 -9 158 -23 210 -31 52 -8 138 -16 190 -18 52 -2
116 -7 141 -11 45 -7 46 -6 78 34 38 48 38 46 -6 226 -17 66 -35 156 -42 200
-12 80 -21 123 -62 305 -11 52 -22 108 -23 124 -2 27 -54 86 -75 86 -6 0 -31
-24 -58 -52 -113 -123 -187 -200 -324 -342 -81 -83 -166 -173 -190 -201 -83
-96 -187 -195 -206 -195 -10 0 -37 5 -61 10 -24 6 -49 7 -55 3 -7 -4 -3 -9 13
-13 36 -9 32 -35 -5 -35 -16 0 -37 -8 -45 -18 -12 -14 -23 -16 -60 -9 -29 5
-45 13 -45 22 0 11 10 14 36 12 29 -3 40 1 53 20 9 12 16 28 16 35 0 18 -35
25 -64 12 -22 -11 -28 -10 -40 6 -12 17 -13 17 -20 -1 -4 -11 -3 -20 3 -22 6
-2 11 -8 11 -14 0 -6 -7 -8 -15 -4 -8 3 -20 -3 -27 -13 -19 -27 -56 -43 -81
-36 -100 29 -288 89 -656 208 -72 23 -130 66 -269 198 -67 64 -92 94 -97 120
-4 19 -13 54 -21 79 -8 25 -32 106 -54 180 -22 74 -45 149 -50 165 -5 17 -14
60 -19 96 -6 36 -16 80 -22 98 -8 23 -8 36 -1 43 17 17 76 0 123 -36 24 -18
55 -37 69 -41 48 -15 43 -4 115 -250 14 -49 34 -112 45 -140 10 -27 21 -59 25
-70 6 -19 7 -19 26 5 29 37 166 238 231 340 31 49 84 123 117 166 45 57 61 85
61 108 0 40 -16 67 -29 48 -6 -9 -19 -11 -45 -7 -32 7 -36 5 -36 -14 0 -18 -6
-21 -32 -20 -55 2 -151 -20 -178 -39 -21 -16 -34 -18 -80 -11 -96 13 -107 12
-114 -16 -4 -14 -13 -25 -22 -25 -42 0 -131 77 -121 104 6 15 -1 19 -61 31
-17 4 -32 12 -33 18 0 7 -1 48 -2 92 -2 79 -2 80 -27 78 -14 -2 -42 -8 -63
-14 -32 -11 -37 -16 -37 -42 0 -29 -26 -82 -60 -122 -31 -37 -102 -219 -111
-285 -23 -165 -39 -309 -39 -348 0 -29 -10 -60 -29 -95 l-29 -52 -3 -285 -3
-285 38 -80 c75 -157 143 -302 206 -443 l65 -142 155 -149 156 -148 299 -153
c165 -84 347 -177 405 -206 77 -39 135 -60 215 -78 61 -14 171 -39 246 -55
l137 -31 489 0 490 0 149 35 c82 19 192 45 244 56 94 21 178 60 555 259 44 23
141 73 215 110 133 67 137 70 292 220 86 83 160 161 164 173 4 12 21 53 39 92
18 38 43 93 55 120 12 28 38 84 57 125 20 41 48 102 63 135 15 33 39 86 54
117 l26 57 0 274 0 275 -30 64 c-26 54 -30 75 -30 148 -1 123 -24 356 -37 371
-6 8 -43 70 -82 139 l-71 124 -44 -3 c-34 -2 -49 3 -71 22 -27 23 -28 26 -16
55 15 37 10 47 -26 55 -22 5 -34 20 -58 68 -54 111 -66 131 -96 163 -16 17
-29 39 -29 48 0 9 -6 21 -13 25 -21 13 -47 56 -47 77 0 10 -8 24 -17 31 -18
13 -16 26 14 118 6 20 -26 24 -59 6 -11 -6 -21 -9 -23 -7 -6 6 20 77 33 90 12
12 5 38 -10 38 -5 0 -42 -24 -81 -54 -40 -29 -83 -59 -96 -65 -12 -7 -40 -30
-62 -52 -42 -42 -66 -49 -76 -22 -4 11 1 22 17 32 14 9 51 36 84 61 34 25 81
57 106 71 56 32 65 64 21 74 -33 7 -68 -10 -126 -61 -16 -14 -58 -46 -91 -70
-34 -24 -65 -51 -68 -59 -8 -21 -38 -19 -34 2 4 21 134 123 198 156 44 23 45
24 48 78 l3 55 -43 21 c-24 12 -79 37 -123 56 -165 71 -391 168 -420 181 -16
7 -49 22 -72 32 -28 11 -43 24 -43 36 0 10 -1 18 -2 18 -37 1 -130 25 -173 44
-63 29 -62 29 -69 17z m820 -1036 c8 -32 -8 -136 -21 -136 -5 0 -13 14 -18 30
-8 34 -27 42 -27 12 0 -24 -18 -37 -32 -23 -13 13 -1 52 17 52 14 0 25 21 25
49 0 42 46 55 56 16z m-136 -111 c0 -35 -13 -46 -24 -18 -8 21 4 65 15 58 5
-3 9 -21 9 -40z m857 -481 c2 -5 -13 -34 -34 -64 -20 -30 -92 -135 -159 -234
-66 -99 -129 -182 -138 -183 -18 -4 -85 63 -86 85 0 7 20 22 44 33 29 14 68
49 116 106 40 47 86 96 101 109 18 14 36 45 46 79 15 47 23 58 53 70 38 16 52
16 57 -1z m-3012 -33 c3 -5 17 -10 30 -10 37 0 40 -19 9 -51 -45 -47 -75 -32
-67 34 5 36 16 47 28 27z m1465 -145 c0 -8 -14 -35 -32 -59 l-31 -45 26 -68
c14 -37 36 -111 47 -163 97 -430 107 -484 114 -582 4 -57 -6 -80 -26 -60 -10
10 -51 181 -67 282 -5 30 -14 69 -19 85 -5 17 -17 68 -27 115 -9 47 -21 103
-25 125 -5 22 -16 74 -25 115 -9 41 -21 93 -27 115 -5 22 -12 59 -15 83 -5 40
-3 43 28 57 44 19 79 19 79 0z m1643 -130 c-4 -15 -36 -12 -41 3 -3 9 3 13 19
10 13 -1 23 -7 22 -13z m-75 -44 c3 -27 0 -33 -12 -28 -12 5 -16 0 -16 -20 0
-24 2 -25 39 -19 50 8 60 -6 24 -33 -16 -11 -33 -25 -40 -31 -21 -18 -33 -11
-33 19 0 16 -7 34 -15 41 -19 16 -19 31 0 76 19 46 49 44 53 -5z m-2683 -1 c3
-5 -1 -10 -10 -10 -9 0 -13 5 -10 10 3 6 8 10 10 10 2 0 7 -4 10 -10z m2795
-65 c0 -8 -4 -15 -9 -15 -5 0 -14 7 -21 15 -10 13 -9 15 9 15 12 0 21 -6 21
-15z m-633 -16 c30 14 33 14 33 1 0 -12 -123 -140 -135 -140 -4 0 -5 15 -3 32
3 18 1 45 -4 61 -15 41 3 58 49 45 25 -7 44 -6 60 1z m663 -140 c0 -20 -15
-26 -25 -9 -9 15 3 43 15 35 5 -3 10 -15 10 -26z m-2120 -49 c0 -5 -4 -10 -10
-10 -5 0 -10 5 -10 10 0 6 5 10 10 10 6 0 10 -4 10 -10z m2090 -74 c0 -7 -7
-19 -15 -26 -8 -7 -15 -21 -15 -31 0 -11 -6 -19 -14 -19 -11 0 -15 41 -7 83 2
13 51 7 51 -7z m-735 -35 c6 -11 -25 -43 -65 -69 -14 -9 -101 -73 -195 -142
-93 -70 -189 -140 -211 -156 -23 -16 -79 -57 -125 -91 -46 -35 -90 -63 -98
-63 -8 0 -29 -16 -48 -36 -26 -29 -38 -35 -58 -30 -14 4 -25 11 -25 16 0 6
-10 10 -21 10 -20 0 -48 25 -49 43 0 14 48 7 54 -9 10 -25 31 -10 31 22 0 23
5 30 23 32 17 3 25 -2 29 -17 7 -27 19 -27 34 2 24 47 92 127 108 127 24 0 69
31 136 95 33 31 79 65 103 76 23 11 42 24 42 29 0 5 21 21 48 34 26 13 55 33
65 44 10 10 37 27 60 37 23 9 51 22 62 28 17 9 61 22 87 26 4 1 9 -3 13 -8z
m-2195 -11 c0 -5 -5 -10 -11 -10 -5 0 -7 5 -4 10 3 6 8 10 11 10 2 0 4 -4 4
-10z m190 -380 c0 -5 -4 -10 -10 -10 -5 0 -10 5 -10 10 0 6 5 10 10 10 6 0 10
-4 10 -10z m1128 -77 c-4 -20 -39 -25 -45 -6 -4 10 11 18 40 22 5 0 7 -7 5
-16z m-2228 -41 c0 -5 -7 -31 -15 -58 -8 -27 -15 -50 -15 -51 0 -10 60 0 77
12 l22 16 -14 -42 c-19 -52 -19 -69 -1 -69 16 0 28 -24 20 -44 -3 -7 1 -29 9
-49 14 -32 13 -38 -3 -65 -19 -31 -19 -31 3 -35 16 -3 13 -5 -10 -6 -17 0 -33
-6 -35 -13 -7 -21 -24 0 -37 44 -15 53 -36 118 -45 140 -5 10 0 24 13 37 19
19 19 20 1 26 -13 4 -26 29 -42 76 -19 61 -20 71 -8 79 19 12 80 13 80 2z m80
-11 c15 -28 3 -48 -32 -55 -41 -8 -45 -2 -25 39 19 39 41 45 57 16z m2220
-130 c0 -20 -13 -41 -25 -41 -18 0 -26 15 -19 34 6 17 44 23 44 7z m-697 -39
c15 -14 17 -30 15 -127 -3 -95 -7 -116 -27 -148 -50 -81 -74 -37 -78 143 -3
118 -1 137 14 148 19 14 49 7 76 -16z m477 -36 c0 -8 -4 -17 -9 -21 -12 -7
-24 12 -16 25 9 15 25 12 25 -4z m-20 -85 c0 -16 -30 -33 -47 -26 -17 6 -17 7
1 21 22 16 46 19 46 5z m-1717 -26 c35 -14 54 -32 45 -41 -8 -7 -73 23 -88 40
-16 20 -2 20 43 1z m1967 -9 c0 -14 -20 -23 -98 -47 -31 -9 -46 -9 -53 -2 -14
14 -3 33 19 33 9 0 26 7 36 15 26 19 96 20 96 1z m-374 -27 c4 -8 9 -8 17 0
18 18 37 13 37 -9 0 -13 -7 -20 -20 -20 -31 0 -23 -18 15 -34 19 -8 35 -20 35
-25 0 -11 -40 -51 -51 -51 -13 0 -27 25 -31 55 -2 22 -9 31 -25 33 -25 4 -28
14 -13 43 12 21 25 25 36 8z m554 -9 c0 -5 -4 -10 -10 -10 -5 0 -10 5 -10 10
0 6 5 10 10 10 6 0 10 -4 10 -10z m-115 -20 c4 -6 -7 -13 -25 -16 -17 -4 -33
-11 -36 -15 -9 -15 -86 -11 -82 4 3 6 18 13 34 15 16 2 33 8 39 13 12 12 62
12 70 -1z m-425 -150 c0 -11 -4 -20 -10 -20 -5 0 -10 9 -10 20 0 11 5 20 10
20 6 0 10 -9 10 -20z"/>
<path d="M1795 4572 c-39 -31 -84 -67 -100 -79 -45 -32 -23 -40 27 -9 83 52
173 119 173 130 0 26 -35 12 -100 -42z"/>
<path d="M3067 4563 c-10 -9 13 -33 30 -33 10 0 13 6 9 16 -3 9 -6 18 -6 20 0
7 -26 5 -33 -3z"/>
<path d="M2810 4494 c-44 -62 -190 -286 -190 -291 0 -2 7 -3 15 -3 8 0 49 51
90 114 41 63 91 133 110 156 38 45 39 48 26 69 -7 10 -19 -1 -51 -45z"/>
<path d="M2969 4509 c-20 -38 -26 -73 -18 -97 12 -31 -6 -65 -44 -87 -83 -47
-147 -141 -146 -212 1 -21 -2 -50 -6 -66 -10 -38 9 -57 58 -57 23 0 75 -7 117
-15 41 -8 134 -26 205 -40 151 -30 300 -63 333 -76 13 -5 20 -14 16 -20 -11
-18 -111 -4 -369 49 -184 37 -206 41 -268 41 -32 1 -67 6 -78 11 -26 14 -44 3
-27 -17 7 -8 15 -43 19 -77 4 -40 19 -90 41 -137 19 -41 49 -121 67 -179 36
-114 42 -130 61 -175 13 -29 29 -112 33 -167 1 -16 8 -28 16 -28 7 0 54 42
105 93 100 103 298 293 449 432 53 49 95 95 93 101 -8 21 18 34 70 34 31 0 56
5 63 13 16 20 3 27 -50 27 -56 0 -79 7 -79 25 0 22 -126 61 -145 45 -7 -6 -38
-4 -81 5 -153 33 -221 47 -264 55 -89 14 -256 52 -302 67 -55 18 -65 43 -17
43 34 0 161 -27 194 -41 27 -11 97 -29 175 -45 36 -7 87 -17 115 -23 91 -20
100 31 17 97 -128 101 -173 157 -251 312 -72 142 -80 150 -102 109z m71 -155
c0 -8 -4 -12 -10 -9 -5 3 -10 10 -10 16 0 5 5 9 10 9 6 0 10 -7 10 -16z"/>
<path d="M2575 4478 c-22 -6 -58 -16 -80 -24 -23 -8 -53 -14 -68 -14 -16 0
-30 -7 -34 -16 -3 -9 -31 -28 -62 -41 -30 -14 -72 -38 -92 -54 -20 -16 -42
-29 -48 -29 -15 0 -14 -25 2 -37 18 -15 132 -34 217 -36 71 -2 78 0 116 30 49
38 158 198 150 219 -6 16 -41 16 -101 2z"/>
<path d="M1430 4333 c-26 -12 -31 -17 -17 -20 23 -6 89 16 82 28 -8 13 -24 11
-65 -8z"/>
<path d="M1585 4340 c-3 -5 3 -10 15 -10 12 0 18 5 15 10 -3 6 -10 10 -15 10
-5 0 -12 -4 -15 -10z"/>
<path d="M1315 4282 c-6 -5 -35 -19 -65 -32 -30 -12 -84 -36 -120 -52 -107
-49 -159 -68 -189 -68 -28 0 -81 -33 -81 -51 0 -18 33 -8 133 40 56 27 152 70
212 96 117 51 161 75 134 75 -8 0 -19 -4 -24 -8z"/>
<path d="M1520 4189 c0 -14 5 -19 17 -17 26 5 29 38 4 38 -15 0 -21 -6 -21
-21z"/>
<path d="M1405 4180 c-3 -5 -1 -10 4 -10 6 0 11 5 11 10 0 6 -2 10 -4 10 -3 0
-8 -4 -11 -10z"/>
<path d="M1663 4167 c4 -10 7 -23 7 -28 0 -5 5 -9 10 -9 16 0 12 26 -7 41 -15
12 -16 12 -10 -4z"/>
<path d="M1674 4056 c-3 -7 -4 -53 -2 -102 2 -73 6 -88 18 -85 8 2 45 6 81 8
51 4 72 2 90 -10 16 -11 27 -13 40 -6 11 6 20 6 24 -1 9 -14 25 -12 20 3 -7
19 10 38 28 31 21 -8 21 -18 2 -34 -19 -16 -19 -30 0 -30 9 0 18 -7 21 -15 9
-24 30 -18 66 19 18 19 49 41 68 49 19 8 44 22 55 30 19 15 19 17 3 33 -10 10
-39 21 -65 24 -74 11 -201 38 -278 60 -111 32 -166 40 -171 26z"/>
<path d="M800 4014 c-41 -50 -48 -94 -15 -94 20 0 45 -40 45 -70 0 -14 4 -30
9 -35 5 -6 11 -21 13 -33 3 -22 7 -20 55 30 29 29 76 82 104 118 48 59 50 65
31 68 -27 4 -129 -24 -137 -38 -3 -6 -12 -10 -20 -10 -19 0 -62 41 -66 64 -4
18 -4 18 -19 0z"/>
<path d="M2320 3924 c-36 -31 -166 -133 -290 -227 -123 -95 -259 -204 -300
-243 -55 -51 -90 -76 -127 -88 -43 -14 -65 -32 -130 -103 -45 -49 -85 -104
-94 -129 -9 -24 -32 -65 -51 -91 -19 -26 -106 -154 -193 -283 -86 -129 -167
-244 -179 -255 -12 -11 -28 -35 -35 -52 -7 -18 -19 -38 -27 -44 -18 -15 -18
-49 0 -49 8 0 23 15 35 33 11 17 38 57 59 87 21 30 95 138 164 240 68 102 156
230 193 285 37 55 74 119 81 143 21 67 114 167 174 187 41 14 124 63 140 85
21 27 657 514 682 523 10 3 10 7 -1 20 -20 25 -30 21 -101 -39z"/>
<path d="M2555 3912 c-27 -10 -62 -29 -77 -43 -15 -14 -62 -47 -105 -74 -153
-94 -583 -425 -583 -449 0 -20 87 -41 113 -27 46 24 76 47 106 83 17 20 55 51
84 69 28 19 78 55 111 82 51 42 64 48 100 46 55 -3 80 6 96 36 16 29 25 31 38
8 8 -13 14 -7 35 38 13 30 27 62 30 72 4 9 11 17 17 17 13 0 13 47 0 55 -22
14 -10 43 23 54 29 11 34 10 47 -11 39 -57 43 -60 68 -43 16 12 22 26 22 55 0
21 6 41 13 43 33 14 -95 3 -138 -11z"/>
<path d="M1290 3759 c-87 -82 -112 -102 -241 -200 -73 -54 -159 -146 -159
-168 0 -21 47 -22 116 -2 134 39 142 43 158 81 25 55 42 81 70 107 14 13 26
28 26 34 0 6 11 25 25 43 14 18 25 40 25 49 0 10 18 35 40 57 35 35 54 80 33
80 -5 0 -46 -36 -93 -81z"/>
<path d="M3612 3658 c-177 -165 -552 -538 -552 -548 0 -6 6 -10 14 -8 8 2 133
118 278 258 145 140 287 277 316 303 47 44 58 67 31 67 -6 0 -45 -32 -87 -72z"/>
<path d="M566 3679 c-9 -18 -14 -34 -12 -37 3 -2 12 10 21 28 9 18 14 34 12
37 -3 2 -12 -10 -21 -28z"/>
<path d="M814 3607 c-135 -142 -166 -177 -157 -177 10 0 196 185 219 218 33
48 5 29 -62 -41z"/>
<path d="M2504 3647 c-16 -33 -16 -38 -2 -54 9 -10 18 -34 21 -53 12 -71 19
-100 27 -100 13 0 40 36 40 55 0 23 -49 167 -60 179 -5 5 -16 -7 -26 -27z"/>
<path d="M2617 3394 c-4 -4 -7 -17 -7 -29 0 -55 -67 -152 -97 -140 -7 2 -20 2
-28 -1 -28 -11 -15 -32 28 -44 109 -30 195 -49 226 -50 29 0 33 3 28 21 -5 18
-2 20 18 15 13 -3 27 -1 30 4 9 15 35 -7 35 -30 0 -22 35 -54 49 -45 6 3 14 0
17 -9 3 -8 12 -17 20 -20 12 -5 12 -1 -1 24 -8 16 -15 39 -15 52 1 39 -6 66
-19 82 -7 8 -10 20 -6 26 9 14 -58 13 -73 -2 -7 -7 -12 -21 -13 -32 0 -20 -1
-20 -16 2 -8 12 -23 22 -32 22 -14 1 -61 60 -61 79 0 13 -76 82 -83 75z"/>
<path d="M2803 3393 c-21 -7 -15 -33 7 -33 11 0 20 6 20 14 0 18 -11 25 -27
19z"/>
<path d="M1967 3332 c-20 -22 -13 -32 20 -32 18 0 23 5 23 25 0 30 -20 33 -43
7z"/>
<path d="M2830 3310 c0 -5 5 -10 10 -10 6 0 10 5 10 10 0 6 -4 10 -10 10 -5 0
-10 -4 -10 -10z"/>
<path d="M630 3290 c0 -5 9 -10 20 -10 11 0 20 5 20 10 0 6 -9 10 -20 10 -11
0 -20 -4 -20 -10z"/>
<path d="M1739 3269 c-21 -12 -3 -23 59 -35 31 -7 84 -17 117 -24 73 -14 236
-52 365 -84 274 -69 543 -118 460 -85 -14 6 -43 14 -65 19 -22 4 -130 28 -240
53 -110 25 -234 54 -275 63 -41 9 -150 36 -242 59 -97 25 -172 39 -179 34z"/>
<path d="M2180 3270 c0 -5 5 -10 10 -10 6 0 10 5 10 10 0 6 -4 10 -10 10 -5 0
-10 -4 -10 -10z"/>
<path d="M2258 3263 c-29 -7 -20 -23 13 -23 19 0 29 4 27 12 -5 14 -17 17 -40
11z"/>
<path d="M2380 3220 c0 -5 7 -10 16 -10 8 0 12 5 9 10 -3 6 -10 10 -16 10 -5
0 -9 -4 -9 -10z"/>
<path d="M2295 2543 c-40 -21 -135 -118 -135 -138 0 -9 10 -19 23 -24 17 -6
27 -3 44 15 12 13 24 31 27 41 3 10 16 23 28 28 25 11 51 57 46 79 -2 12 -8
12 -33 -1z"/>
<path d="M1473 2234 c-15 -13 -40 -26 -55 -29 -15 -4 -28 -12 -28 -18 0 -12
141 -63 254 -92 32 -8 72 -26 90 -40 35 -26 56 -32 56 -14 0 5 -21 42 -46 80
-40 62 -49 70 -70 65 -17 -5 -37 3 -71 28 -64 45 -96 50 -130 20z"/>
<path d="M2170 2195 c-24 -25 -42 -45 -39 -45 3 0 25 20 49 45 24 25 42 45 39
45 -3 0 -25 -20 -49 -45z"/>
<path d="M2085 2102 c-16 -19 -37 -45 -45 -56 -13 -19 -13 -20 3 -7 23 18 81
91 76 95 -2 2 -17 -13 -34 -32z"/>
</g>
</svg>
